<svg width="25" height="25" viewBox="0 0 100 100" fill="none" xmlns="http://www.w3.org/2000/svg">
<circle cx="50" cy="50" r="50" fill="#040404" fill-opacity="0.65"/>
<path d="M80 50C80 48.1152 79.8232 46.2286 79.473 44.3969C79.315 43.5678 78.5889 42.9686 77.7461 42.9686H50.1172C49.1456 42.9686 48.3594 43.7548 48.3594 44.7264V55.2733C48.3594 56.2449 49.1456 57.0311 50.1172 57.0311H64.293C63.4098 58.8192 62.1925 60.3706 60.7632 61.6759L70.6984 71.611C76.4149 66.1647 80 58.5007 80 50Z" fill="white"/>
<path d="M50.0001 34.0625C53.4488 34.0625 56.7292 35.1577 59.486 37.2314C60.183 37.755 61.1666 37.6914 61.7846 37.0682L69.2862 29.5666C69.6347 29.2181 69.8217 28.7391 69.7995 28.2465C69.7772 27.7538 69.5506 27.2937 69.1729 26.9762C63.8051 22.4771 56.9952 20 50.0001 20C39.7053 20 30.6105 25.2329 25.234 33.178L35.5521 43.4961C38.0138 37.9512 43.5523 34.0625 50.0001 34.0625Z" fill="white"/>
<path d="M50.0001 80C56.7106 80 62.8899 77.75 67.8831 74.0015L57.7615 63.8799C55.448 65.1826 52.8038 65.9375 50.0001 65.9375C43.5523 65.9375 38.0138 62.0488 35.5521 56.5039L25.234 66.822C30.6105 74.7671 39.7053 80 50.0001 80Z" fill="white"/>
<path d="M34.3184 52.5318C34.1838 51.7022 34.0625 50.8668 34.0625 50C34.0625 49.1331 34.1838 48.2977 34.3184 47.4681L23.2883 36.438C21.2014 40.5138 20 45.1151 20 50C20 54.8848 21.2014 59.4862 23.2884 63.5619L34.3184 52.5318Z" fill="white"/>
</svg>
