<svg width="165" height="125" viewBox="0 0 165 125" fill="none" xmlns="http://www.w3.org/2000/svg">
<path fill-rule="evenodd" clip-rule="evenodd" d="M155.925 84.379C155.925 87.408 155.925 90.446 155.925 93.483C155.362 93.947 154.795 94.41 154.248 94.892C154.001 95.108 153.749 95.185 153.423 95.185C151.067 95.172 148.709 95.19 146.359 95.167C145.902 95.163 145.591 95.297 145.279 95.614C142.948 97.974 140.595 100.314 138.259 102.675C134.541 106.448 130.828 110.235 127.112 114.01C126.225 114.913 125.177 115.516 123.928 115.771C123.845 115.789 123.764 115.834 123.685 115.871C95.9438 115.871 68.2018 115.871 40.4578 115.871C40.3458 115.832 40.2338 115.779 40.1178 115.756C38.8608 115.493 37.7748 114.937 36.8738 114.008C35.7538 112.857 34.6118 111.731 33.4838 110.584C28.7268 105.759 23.9688 100.931 19.2178 96.095C18.9578 95.83 18.6988 95.724 18.3318 95.724C15.8658 95.74 13.4068 95.724 10.9438 95.74C10.5478 95.74 10.2358 95.649 9.9278 95.382C9.3788 94.905 8.79178 94.47 8.21878 94.019C8.21878 90.699 8.21878 87.375 8.21878 84.056C8.37878 83.975 8.53977 83.904 8.68777 83.812C10.1578 82.892 11.6118 81.956 13.0878 81.057C16.9108 78.731 20.7438 76.414 24.5798 74.104C25.0808 73.801 25.4098 73.364 25.8128 72.828C25.5328 72.828 25.3398 72.828 25.1508 72.828C21.3498 72.828 17.5528 72.828 13.7518 72.828C12.7498 72.828 11.7568 72.816 10.7548 72.833C10.4658 72.838 10.2468 72.753 10.0298 72.564C9.57379 72.168 9.10278 71.787 8.62778 71.409C8.50878 71.314 8.35477 71.27 8.21777 71.203C8.21777 67.917 8.21777 64.632 8.21777 61.348C8.35477 61.27 8.50379 61.209 8.62579 61.112C9.07079 60.752 9.51877 60.404 9.94177 60.02C10.2398 59.747 10.5568 59.659 10.9568 59.659C19.5398 59.666 28.1208 59.655 36.7088 59.666C37.1388 59.666 37.4188 59.544 37.7028 59.214C40.2078 56.303 42.7258 53.411 45.2458 50.516C57.3638 36.56 69.4808 22.609 81.6018 8.64697C81.7168 8.51497 81.8088 8.36297 81.9088 8.21997C81.9458 8.21997 81.9818 8.21997 82.0188 8.21997C82.4368 8.72997 82.8438 9.24397 83.2758 9.73697C91.9188 19.698 100.566 29.652 109.214 39.61C114.911 46.17 120.614 52.728 126.308 59.295C126.541 59.566 126.777 59.664 127.13 59.662C129.05 59.651 130.983 59.665 132.911 59.665C139.708 59.665 146.507 59.669 153.306 59.658C153.729 59.658 154.055 59.763 154.367 60.044C154.866 60.5 155.402 60.914 155.924 61.347C155.924 64.382 155.924 67.415 155.924 70.452C155.513 70.786 155.069 71.094 154.692 71.469C154.175 71.979 153.596 72.21 152.87 72.118C152.61 72.085 152.336 72.129 152.064 72.14C152.329 72.477 152.605 72.733 152.907 72.946C153.189 73.141 153.266 73.378 153.266 73.712C153.248 76.295 153.248 78.878 153.266 81.463C153.266 81.913 153.229 82.308 152.829 82.586C152.815 82.597 152.829 82.653 152.829 82.736C153.003 82.736 153.177 82.754 153.347 82.734C153.748 82.682 154.056 82.834 154.356 83.098C154.867 83.542 155.399 83.952 155.925 84.379ZM94.1078 73.725C85.8088 73.725 77.5758 73.725 69.2898 73.725C69.2898 73.48 69.2898 73.269 69.2898 73.058C69.2898 69.846 69.2898 66.633 69.2898 63.424C69.2898 63.283 69.2848 63.138 69.2898 62.994C69.2988 62.751 69.1838 62.631 68.9408 62.634C68.8168 62.634 68.6888 62.631 68.5648 62.631C65.6208 62.631 62.6758 62.631 59.7278 62.631C59.6238 62.631 59.5128 62.627 59.4088 62.634C59.0738 62.654 59.0138 62.714 58.9958 63.053C58.9908 63.142 58.9908 63.231 58.9908 63.32C58.9908 72.834 58.9908 82.347 58.9908 91.861C58.9908 91.985 58.9908 92.108 59.0018 92.234C59.0088 92.431 59.1208 92.524 59.3098 92.531C59.4508 92.538 59.5968 92.534 59.7358 92.534C62.4508 92.534 65.1608 92.534 67.8718 92.534C68.1978 92.534 68.5208 92.542 68.8398 92.534C69.2588 92.523 69.2808 92.497 69.2908 92.065C69.2968 91.939 69.2908 91.815 69.2908 91.689C69.2908 88.656 69.2908 85.622 69.2908 82.588C69.2908 82.381 69.3038 82.177 69.3148 81.976C70.3278 81.861 93.7098 81.909 94.1088 82.032C94.1088 82.218 94.1088 82.412 94.1088 82.607C94.1088 85.643 94.1088 88.677 94.1088 91.711C94.1088 91.854 94.1198 91.997 94.1088 92.138C94.1018 92.401 94.2008 92.547 94.4818 92.534C94.5728 92.531 94.6628 92.534 94.7528 92.534C97.7478 92.534 100.749 92.534 103.748 92.534C103.819 92.534 103.892 92.537 103.959 92.534C104.356 92.519 104.394 92.48 104.412 92.108C104.416 92.036 104.412 91.963 104.412 91.893C104.412 82.364 104.412 72.832 104.412 63.302C104.412 63.194 104.412 63.087 104.412 62.979C104.412 62.764 104.309 62.646 104.09 62.636C103.984 62.631 103.875 62.631 103.768 62.631C100.769 62.631 97.7678 62.631 94.7728 62.631C94.6668 62.631 94.5618 62.631 94.4518 62.634C94.2368 62.639 94.1208 62.741 94.1158 62.962C94.1158 63.105 94.1158 63.246 94.1158 63.391C94.1108 66.622 94.1108 69.85 94.1108 73.082C94.1078 73.276 94.1078 73.471 94.1078 73.725ZM49.3578 72.948C49.3488 72.909 49.3378 72.864 49.3258 72.828C49.1548 72.828 48.9848 72.828 48.8168 72.828C43.5308 72.828 38.2458 72.831 32.9608 72.82C32.5898 72.82 32.2768 72.912 31.9568 73.104C27.3658 75.883 22.7578 78.646 18.1618 81.425C15.9778 82.744 13.8118 84.093 11.6348 85.425C11.3938 85.57 11.2378 85.714 11.2378 86.048C11.2568 88.121 11.2458 90.19 11.2508 92.259C11.2508 92.723 11.3008 92.762 11.7828 92.773C11.8568 92.774 11.9278 92.773 11.9978 92.773C25.9228 92.773 39.8468 92.773 53.7678 92.773C53.9128 92.773 54.0538 92.773 54.2018 92.771C54.4428 92.769 54.5548 92.638 54.5508 92.4C54.5508 92.274 54.5548 92.15 54.5548 92.025C54.5548 90.15 54.5548 88.275 54.5548 86.399C54.5548 85.602 54.5548 85.598 53.7678 85.598C48.9348 85.598 44.1008 85.598 39.2598 85.598C35.8308 85.598 32.4048 85.598 28.9778 85.598C28.7888 85.598 28.6108 85.582 28.4238 85.569C28.4188 85.535 28.4148 85.498 28.4058 85.463C35.3918 81.297 42.3938 77.153 49.3578 72.948ZM118.483 72.173C117.913 72.049 108.737 72.064 108.288 72.19C108.288 72.349 108.288 72.525 108.288 72.701C108.288 78.983 108.288 85.265 108.288 91.547C108.288 92.198 108.299 92.204 108.949 92.207C109.041 92.207 109.129 92.207 109.22 92.207C118.286 92.207 127.349 92.207 136.42 92.207C141.742 92.207 147.059 92.207 152.377 92.207C153.028 92.207 153.028 92.2 153.028 91.547C153.031 89.886 153.031 88.225 153.028 86.563C153.028 85.74 153.152 85.677 152.16 85.677C141.181 85.68 130.204 85.68 119.229 85.68C118.996 85.68 118.772 85.68 118.482 85.68C118.483 81.138 118.483 76.645 118.483 72.173ZM32.8558 69.863C32.8558 69.864 32.8558 69.868 32.8558 69.872C39.7778 69.872 46.7048 69.872 53.6278 69.872C53.7758 69.872 53.9178 69.876 54.0598 69.869C54.5028 69.857 54.5508 69.817 54.5508 69.372C54.5548 67.32 54.5548 65.267 54.5508 63.212C54.5508 62.719 54.4578 62.639 53.9448 62.63C53.8198 62.63 53.6928 62.63 53.5678 62.63C45.9798 62.63 38.3968 62.63 30.8098 62.63C24.5098 62.63 18.2048 62.63 11.9068 62.63C11.2638 62.63 11.2488 62.645 11.2488 63.292C11.2468 65.237 11.2488 67.184 11.2488 69.129C11.2488 69.887 11.2488 69.887 12.0218 69.887C16.6628 69.879 21.3038 69.869 25.9448 69.863C28.2478 69.861 30.5528 69.863 32.8558 69.863ZM25.0978 95.73C25.2998 95.956 25.3958 96.078 25.5108 96.19C30.3348 101.081 35.1668 105.967 39.9878 110.862C40.4198 111.302 40.9148 111.5 41.5188 111.491C42.2678 111.479 43.0168 111.491 43.7678 111.494C52.7458 111.501 61.7238 111.513 70.7018 111.518C87.8538 111.527 105.008 111.527 122.166 111.549C123.065 111.549 123.772 111.288 124.39 110.615C125.406 109.513 126.473 108.46 127.525 107.392C131.409 103.453 135.296 99.516 139.182 95.576C139.278 95.477 139.364 95.373 139.503 95.214C139.298 95.197 139.16 95.179 139.027 95.179C138.42 95.174 137.807 95.237 137.21 95.162C136.41 95.062 135.898 95.403 135.367 95.949C131.313 100.098 127.23 104.224 123.176 108.368C122.662 108.894 122.099 109.119 121.367 109.117C118.262 109.097 115.156 109.105 112.051 109.102C96.1468 109.097 80.2398 109.084 64.3408 109.077C57.2158 109.072 50.0958 109.077 42.9698 109.072C42.7048 109.072 42.4398 109.069 42.1688 109.043C41.7458 109.006 41.3878 108.827 41.0898 108.52C38.7838 106.18 36.4748 103.846 34.1668 101.506C32.3498 99.667 30.5398 97.818 28.7128 95.978C28.5988 95.863 28.4188 95.745 28.2718 95.739C27.2578 95.718 26.2458 95.73 25.0978 95.73ZM108.289 69.123C108.569 69.123 108.774 69.123 108.987 69.123C118.963 69.136 128.938 69.152 138.912 69.164C143.372 69.167 147.835 69.164 152.295 69.164C152.438 69.164 152.578 69.167 152.721 69.156C152.905 69.136 153.016 69.037 153.03 68.844C153.033 68.72 153.03 68.595 153.03 68.469C153.03 66.789 153.03 65.112 153.033 63.438C153.033 62.646 153.108 62.628 152.199 62.628C141.886 62.631 131.573 62.628 121.26 62.628C117.153 62.628 113.048 62.628 108.946 62.628C108.308 62.628 108.289 62.646 108.289 63.294C108.289 64.794 108.289 66.296 108.289 67.792C108.289 68.203 108.289 68.613 108.289 69.123ZM66.8818 41.588C66.8718 41.631 66.8628 41.674 66.8588 41.72C67.2338 41.985 67.6118 42.252 67.9968 42.508C70.4498 44.169 72.9028 45.823 75.3578 47.481C75.9468 47.877 75.9918 48.039 75.7708 48.684C74.7498 51.653 73.7298 54.619 72.7058 57.59C72.6648 57.716 72.6338 57.849 72.5648 58.105C72.8208 57.945 72.9798 57.845 73.1378 57.743C75.9768 55.921 78.8138 54.102 81.6428 52.264C81.9878 52.042 82.2248 52.014 82.5878 52.253C85.4288 54.107 88.2858 55.93 91.1398 57.762C91.2868 57.857 91.4468 57.946 91.6998 58.094C91.6248 57.846 91.5988 57.727 91.5518 57.612C90.5798 54.8 89.6128 51.983 88.6328 49.17C88.2428 48.059 88.3128 47.847 89.3028 47.184C91.9098 45.438 94.5128 43.683 97.1198 41.926C97.2258 41.854 97.3168 41.759 97.5008 41.607C97.2018 41.583 97.0168 41.555 96.8238 41.555C94.9318 41.522 93.0378 41.496 91.1458 41.473C89.6298 41.455 88.1168 41.455 86.5968 41.44C86.0328 41.436 85.8388 41.295 85.6628 40.819C84.5788 37.894 83.4908 34.967 82.4078 32.043C82.3358 31.852 82.2538 31.668 82.1238 31.361C81.9868 31.691 81.8938 31.898 81.8158 32.11C80.8078 34.834 79.7978 37.56 78.7938 40.283C78.3738 41.418 78.3298 41.45 77.1358 41.455C74.1038 41.477 71.0728 41.503 68.0398 41.532C67.6528 41.534 67.2668 41.568 66.8818 41.588ZM82.0388 18.66C82.2078 18.847 82.3268 18.975 82.4468 19.109C91.9018 29.996 101.358 40.886 110.814 51.772C112.991 54.279 115.171 56.782 117.341 59.296C117.571 59.567 117.805 59.678 118.157 59.667C118.887 59.645 119.622 59.66 120.356 59.66C120.489 59.66 120.621 59.641 120.865 59.626C107.885 44.682 94.9758 29.821 82.0458 14.933C81.9118 15.068 81.8238 15.158 81.7478 15.249C68.9338 30.004 56.1248 44.763 43.3128 59.523C43.3068 59.534 43.3028 59.556 43.3068 59.571C43.3128 59.585 43.3198 59.604 43.3438 59.66C43.9318 59.66 44.5368 59.663 45.1368 59.66C45.5448 59.656 46.0048 59.756 46.3528 59.604C46.6978 59.452 46.9198 59.036 47.2018 58.736C47.2768 58.66 47.3388 58.576 47.4138 58.495C58.8358 45.345 70.2588 32.196 81.6828 19.039C81.7818 18.923 81.8928 18.816 82.0388 18.66ZM121.524 74.522C121.524 74.811 121.524 75.007 121.524 75.197C121.524 76.894 121.524 78.59 121.524 80.285C121.524 81.038 121.524 81.038 122.295 81.038C131.379 81.038 140.462 81.038 149.55 81.038C149.642 81.038 149.73 81.044 149.817 81.038C150.269 81.025 150.309 80.994 150.309 80.542C150.317 78.705 150.312 76.863 150.309 75.027C150.309 74.547 150.28 74.531 149.78 74.523C149.726 74.519 149.67 74.523 149.618 74.523C140.482 74.523 131.344 74.523 122.199 74.523C122.01 74.522 121.819 74.522 121.524 74.522ZM82.1228 28.045C82.2828 28.214 82.3698 28.305 82.4468 28.397C83.6038 29.71 84.7588 31.027 85.9108 32.338C87.9518 34.653 89.9938 36.975 92.0278 39.296C92.2198 39.515 92.4078 39.633 92.7068 39.628C93.4028 39.619 94.1008 39.641 94.7988 39.644C94.9038 39.644 95.0138 39.604 95.1778 39.572C90.8148 34.535 86.4938 29.55 82.1628 24.551C82.0668 24.637 82.0068 24.677 81.9608 24.729C77.7168 29.624 73.4738 34.521 69.2358 39.418C69.2108 39.444 69.1948 39.475 69.1798 39.512C69.1748 39.523 69.1828 39.542 69.1878 39.558C69.1958 39.576 69.2028 39.591 69.2118 39.614C69.9558 39.614 70.7088 39.599 71.4498 39.621C71.8228 39.636 72.0698 39.512 72.3178 39.228C75.4428 35.651 78.5808 32.085 81.7068 28.52C81.8368 28.377 81.9658 28.227 82.1228 28.045ZM74.2168 99.305C77.3098 99.305 80.3498 99.305 83.3928 99.305C83.4278 98.567 83.0538 97.944 82.4008 97.705C82.0898 97.59 81.7408 97.544 81.4108 97.542C78.7668 97.529 76.1268 97.537 73.4828 97.537C73.3268 97.537 73.1618 97.537 73.0008 97.555C72.1478 97.651 71.3468 98.389 71.4058 99.324C71.4428 99.892 71.4088 100.464 71.4088 101.038C71.4088 101.965 71.3998 102.89 71.4188 103.819C71.4318 104.838 72.1068 105.524 73.1158 105.588C73.2458 105.599 73.3698 105.597 73.4938 105.597C76.1178 105.597 78.7418 105.597 81.3668 105.597C81.5258 105.597 81.6858 105.598 81.8468 105.58C82.7048 105.488 83.3838 104.886 83.4248 104.098C83.4718 103.136 83.4288 102.172 83.4248 101.211C83.4248 101.181 83.3838 101.152 83.3558 101.116C80.9408 101.116 78.5118 101.116 76.0838 101.116C77.5838 101.67 79.1448 102.012 80.6578 102.503C80.6578 103.025 80.7288 103.48 80.6018 103.97C78.4658 103.97 76.3508 103.97 74.2168 103.967C74.2168 102.39 74.2168 100.899 74.2168 99.305ZM65.8688 43.309C61.1708 48.731 56.4818 54.144 51.7508 59.607C51.9098 59.64 51.9708 59.665 52.0368 59.665C53.8018 59.665 55.5688 59.656 57.3358 59.665C57.5918 59.666 57.7188 59.545 57.8528 59.359C58.5378 58.426 59.2288 57.494 59.9128 56.56C59.9758 56.467 60.0128 56.356 60.0998 56.189C59.2038 56.189 58.3698 56.189 57.4108 56.189C60.8578 52.239 64.2608 48.42 67.6368 44.524C67.0218 44.103 66.4698 43.721 65.8688 43.309ZM112.558 59.64C107.788 54.133 103.098 48.721 98.4028 43.303C97.7828 43.728 97.2288 44.106 96.6228 44.518C100.042 48.412 103.424 52.261 106.891 56.213C106.328 56.213 105.905 56.207 105.482 56.213C105.064 56.213 104.651 56.222 104.184 56.231C104.271 56.385 104.302 56.466 104.354 56.539C105.052 57.488 105.758 58.431 106.44 59.387C106.614 59.63 106.819 59.663 107.083 59.663C108.726 59.66 110.369 59.666 112.01 59.666C112.147 59.666 112.29 59.652 112.558 59.64ZM123.745 97.48C119.676 97.48 115.635 97.48 111.559 97.48C111.559 98.072 111.559 98.65 111.559 99.286C113.124 99.286 114.649 99.286 116.217 99.286C116.217 99.857 116.217 100.373 116.217 100.888C116.217 101.422 116.217 101.956 116.217 102.491C116.217 103.009 116.212 103.526 116.217 104.043C116.221 104.572 116.193 105.096 116.239 105.623C117.211 105.623 118.116 105.623 119.061 105.623C119.061 104.532 119.061 103.483 119.061 102.435C119.065 101.391 119.046 100.345 119.076 99.252C120.671 99.252 122.194 99.252 123.745 99.252C123.745 98.637 123.745 98.077 123.745 97.48ZM43.2838 105.579C43.2838 103.48 43.2838 101.437 43.2838 99.335C46.3788 99.335 49.4228 99.335 52.4788 99.335C52.4788 98.716 52.4788 98.155 52.4788 97.586C48.4808 97.586 44.5278 97.586 40.5458 97.586C40.5458 100.265 40.5458 102.911 40.5458 105.579C41.4478 105.579 42.3188 105.579 43.2838 105.579ZM100.836 97.569C100.836 98.663 100.836 99.694 100.836 100.784C98.8938 100.784 96.9948 100.784 95.0308 100.784C95.0408 101.418 94.9848 101.991 95.0688 102.598C95.7648 102.598 96.4028 102.598 97.0448 102.598C97.6748 102.598 98.2918 102.594 98.9218 102.598C99.5558 102.601 100.188 102.578 100.872 102.62C100.872 103.662 100.872 104.638 100.872 105.618C101.802 105.618 102.678 105.618 103.555 105.618C103.664 104.875 103.633 97.951 103.512 97.569C102.653 97.569 101.785 97.569 100.836 97.569ZM94.1998 97.577C93.2638 97.577 92.3828 97.577 91.5078 97.577C91.4018 98.235 91.4308 105.216 91.5348 105.624C92.4108 105.624 93.2908 105.624 94.1988 105.624C94.1998 102.931 94.1998 100.278 94.1998 97.577ZM63.3028 105.568C63.3028 102.902 63.3028 100.293 63.3028 97.647C62.4088 97.647 61.5468 97.647 60.6878 97.647C60.5738 98.187 60.5878 105.153 60.7068 105.568C61.5498 105.568 62.3998 105.568 63.3028 105.568ZM44.1078 102.55C46.6908 102.55 49.2108 102.55 51.7608 102.55C51.7608 101.96 51.7608 101.404 51.7608 100.851C51.1778 100.743 44.5128 100.76 44.1078 100.868C44.1078 101.409 44.1078 101.96 44.1078 102.55Z" fill="white"/>
</svg>
